HIERARCHY
ROOT Model_Hips
{
	OFFSET 0.000000 96.915077 0.000000
	CHANNELS 6 Xposition Yposition Zposition Xrotation Yrotation Zrotation
	JOINT Model_Spine
	{
		OFFSET 0.000000 11.137703 -1.289900
		CHANNELS 3 Xrotation Yrotation Zrotation
		JOINT Model_Spine1
		{
			OFFSET 0.000000 12.993942 -1.504922
			CHANNELS 3 Xrotation Yrotation Zrotation
			JOINT Model_Spine2
			{
				OFFSET 0.000000 14.850220 -1.719911
				CHANNELS 3 Xrotation Yrotation Zrotation
				JOINT Model_Neck
				{
					OFFSET 0.000000 16.706543 -1.934903
					CHANNELS 3 Xrotation Yrotation Zrotation
					JOINT Model_Head
					{
						OFFSET 0.000000 10.471298 2.002100
						CHANNELS 3 Xrotation Yrotation Zrotation
						JOINT Model_HeadTop_End
						{
							OFFSET 0.000000 20.842606 3.985100
							CHANNELS 3 Xrotation Yrotation Zrotation
							End Site
							{
								OFFSET 0.000000 21.220154 0.000000
							}
						}
					}
				}
				JOINT Model_LeftShoulder
				{
					OFFSET 7.008500 14.768600 -1.919946
					CHANNELS 3 Xrotation Yrotation Zrotation
					JOINT Model_LeftArm
					{
						OFFSET 14.126271 -3.718048 0.029937
						CHANNELS 3 Xrotation Yrotation Zrotation
						JOINT Model_LeftForeArm
						{
							OFFSET 28.282801 0.000000 0.000000
							CHANNELS 3 Xrotation Yrotation Zrotation
							JOINT Model_LeftHand
							{
								OFFSET 26.204689 0.000000 0.000000
								CHANNELS 3 Xrotation Yrotation Zrotation
								End Site
								{
									OFFSET 26.204704 0.000000 0.000000
								}
							}
						}
					}
				}
				JOINT Model_RightShoulder
				{
					OFFSET -7.008500 14.768555 -1.949840
					CHANNELS 3 Xrotation Yrotation Zrotation
					JOINT Model_RightArm
					{
						OFFSET -14.126281 -3.718018 -0.029932
						CHANNELS 3 Xrotation Yrotation Zrotation
						JOINT Model_RightForeArm
						{
							OFFSET -28.283798 0.000000 -0.000001
							CHANNELS 3 Xrotation Yrotation Zrotation
							JOINT Model_RightHand
							{
								OFFSET -26.204193 0.000000 -0.000001
								CHANNELS 3 Xrotation Yrotation Zrotation
								End Site
								{
									OFFSET -26.204208 0.000000 -0.000001
								}
							}
						}
					}
				}
			}
		}
	}
	JOINT Model_LeftUpLeg
	{
		OFFSET 8.327700 -6.193199 -0.402800
		CHANNELS 3 Xrotation Yrotation Zrotation
		JOINT Model_LeftLeg
		{
			OFFSET 0.735802 -42.108742 -0.610721
			CHANNELS 3 Xrotation Yrotation Zrotation
			JOINT Model_LeftFoot
			{
				OFFSET -0.735806 -36.833748 -0.172876
				CHANNELS 3 Xrotation Yrotation Zrotation
				JOINT Model_LeftToeBase
				{
					OFFSET -0.565857 -11.977769 16.297714
					CHANNELS 3 Xrotation Yrotation Zrotation
					JOINT Model_LeftToe_End
					{
						OFFSET -0.111712 -0.312793 7.857784
						CHANNELS 3 Xrotation Yrotation Zrotation
						End Site
						{
							OFFSET -0.111712 -0.312793 7.857784
						}
					}
				}
			}
		}
	}
	JOINT Model_RightUpLeg
	{
		OFFSET -8.327700 -6.193199 -0.516500
		CHANNELS 3 Xrotation Yrotation Zrotation
		JOINT Model_RightLeg
		{
			OFFSET -0.735785 -42.108738 -0.434061
			CHANNELS 3 Xrotation Yrotation Zrotation
			JOINT Model_RightFoot
			{
				OFFSET 0.735776 -36.833748 -0.021630
				CHANNELS 3 Xrotation Yrotation Zrotation
				JOINT Model_RightToeBase
				{
					OFFSET 0.565817 -11.977745 15.903093
					CHANNELS 3 Xrotation Yrotation Zrotation
					JOINT Model_RightToe_End
					{
						OFFSET 0.111702 -0.312791 7.811342
						CHANNELS 3 Xrotation Yrotation Zrotation
						End Site
						{
							OFFSET 0.111702 -0.312791 7.811342
						}
					}
				}
			}
		}
	}
}
MOTION
Frames: 15
Frame Time: 0.016667
2.195001 86.865997 2.105753 18.496818 -10.072777 -1.740768 6.230271 3.439489 3.412329 12.477723 6.820914 4.488095 12.477733 6.820918 4.488105 -0.304118 0.098177 -1.825952 -0.304103 0.098183 -1.825955 -0.000001 0.000000 0.000000 5.025543 6.335404 2.102160 48.432673 1.938779 -64.475572 2.951323 -112.185154 2.568375 -0.000001 0.000001 0.000001 -0.226239 13.923061 1.315879 -57.690155 29.469828 67.361709 -0.610702 107.824433 -0.200188 -0.000001 -0.000002 -0.000002 -64.171205 6.930869 16.684342 124.652359 -14.127925 -0.360465 -43.248662 2.072699 16.827078 -3.594873 0.002933 0.000183 -0.000005 -0.000000 -0.000000 -21.739906 -5.101812 9.266213 50.554475 -9.007125 -4.563126 -37.059565 -3.105816 5.553761 -15.162569 -0.000002 -0.000005 0.000000 -0.000001 0.000000 
1.595009 88.067101 11.425407 19.285302 -4.588620 -2.148476 5.230798 2.489103 2.895590 10.455590 4.922601 4.095599 10.455583 4.922598 4.095598 0.216530 0.038604 -1.451160 0.216545 0.038598 -1.451162 0.000001 0.000001 0.000001 4.580479 5.624381 4.357738 51.213414 4.215933 -68.986577 2.406223 -115.504728 2.258164 -0.000001 -0.000000 -0.000001 -0.490283 13.180989 3.871789 -41.622408 29.771446 59.190337 0.911604 99.796406 -1.638751 0.000000 0.000001 -0.000000 -76.291833 1.566771 8.633495 120.645948 -10.238991 -0.137157 -28.355197 1.444370 11.527519 -3.594872 -0.015828 0.298847 -0.000001 0.000000 -0.000000 -8.691719 -8.087021 8.830863 34.429078 -8.831736 -4.268832 -32.297495 -2.520327 6.204110 -19.332231 -0.000009 -0.000008 0.000000 -0.000002 -0.000000 
0.998354 89.379135 21.031057 19.738417 -0.504354 -2.267318 4.584142 1.731446 2.016085 9.146095 3.761265 3.202340 9.146093 3.761266 3.202340 0.647319 -0.031590 -1.163843 0.647358 -0.031585 -1.163835 0.000002 -0.000000 -0.000000 4.364861 4.472660 5.305219 50.088963 4.612816 -73.019216 1.764621 -118.311089 1.849670 -0.000000 -0.000001 -0.000000 -0.632981 12.150691 6.367685 -27.120366 28.460119 54.110664 12.273468 91.995094 -13.308691 -0.000001 -0.000000 -0.000003 -83.673956 0.283192 -0.337357 112.319025 7.352894 1.312257 -14.949092 -11.149798 0.466952 -3.594886 -0.034658 0.597495 -0.000001 0.000000 -0.000001 -0.933634 -10.278428 9.535560 25.296774 -6.596664 -4.982458 -21.163170 -0.771572 5.617561 -27.928242 0.339705 -3.882685 -0.000000 0.000003 0.000000 
0.375056 90.516060 30.847181 20.010982 2.465956 -2.242168 4.149909 1.256515 1.215253 8.280839 3.167796 2.090493 8.280838 3.167794 2.090493 0.987582 -0.103500 -0.932503 0.987621 -0.103502 -0.932499 0.000001 -0.000000 0.000000 4.448014 3.189701 4.228857 44.440305 2.350350 -73.900366 0.937386 -119.005419 1.299639 0.000000 -0.000001 0.000001 -0.626353 10.868759 8.669314 -15.021833 26.477855 51.897290 -6.887013 84.830048 5.196203 -0.000002 0.000000 -0.000000 -85.990791 1.560968 -4.219036 101.533515 12.321808 2.086919 -6.396388 -16.386863 -0.583085 -3.594854 -0.051235 0.859409 -0.000003 0.000000 0.000000 5.261320 -9.955627 11.989968 17.075710 -5.381149 -8.022987 -4.141855 2.990040 3.779712 -36.239437 0.624543 -0.748100 0.000000 0.000001 0.000000 
-0.181922 91.755180 40.612186 20.194079 4.315145 -1.726031 3.964597 1.074564 0.390244 7.916775 3.068087 0.811499 7.916772 3.068084 0.811499 1.190786 -0.170218 -0.761467 1.190791 -0.170221 -0.761467 0.000004 -0.000000 0.000001 4.626983 1.725238 1.742366 36.072521 -2.677591 -71.742429 0.201986 -115.144955 0.730065 -0.000000 0.000001 0.000000 -0.459874 9.391796 10.854644 -5.214899 24.697394 52.535858 -3.780029 78.190585 1.088418 0.000002 -0.000002 -0.000001 -83.729636 2.994181 -4.148820 90.259119 1.875422 0.863461 -9.011962 -9.306769 4.897066 -3.887403 -0.065206 1.109704 0.000001 -0.000000 -0.000000 9.756243 -8.095834 13.126824 9.163538 -1.997061 -10.276252 19.487679 5.076723 3.429160 -48.987387 3.745143 -4.806513 0.000001 0.000000 0.000000 
-0.612763 92.761482 50.282036 20.036812 5.035093 -1.160166 4.108499 1.141621 -0.288265 8.218558 3.344993 -0.442601 8.218566 3.344994 -0.442600 1.230902 -0.224021 -0.648746 1.230884 -0.224025 -0.648746 -0.000000 0.000000 -0.000000 4.704362 0.074509 -1.387327 27.851425 -8.782528 -67.509863 -0.407279 -107.122255 0.080758 -0.000002 -0.000002 0.000000 -0.132129 7.758624 12.866601 2.304242 23.364091 54.978054 -3.253561 72.857683 -0.679058 -0.000001 -0.000002 0.000001 -79.136061 3.819483 -3.464721 77.878124 -5.372606 -0.765188 -14.046211 -5.062126 8.431848 -4.294776 -0.080491 1.375286 0.000000 -0.000000 0.000000 6.647494 -7.183961 12.632662 20.232738 -0.963344 -10.097369 28.215523 5.696508 -1.590291 -7.935155 1.436781 -6.271870 0.000001 -0.000000 0.000001 
-0.845078 93.386017 59.886101 19.458398 4.943734 -0.821691 4.581066 1.317981 -0.819436 9.180815 3.702524 -1.502004 9.180835 3.702528 -1.502002 1.107311 -0.256930 -0.586829 1.107318 -0.256929 -0.586826 -0.000001 -0.000000 -0.000000 4.590346 -1.743767 -4.990380 20.728816 -14.824569 -62.047310 -1.880936 -98.898168 -1.455140 0.000000 0.000002 0.000000 0.327200 5.953946 14.374476 7.423528 21.661935 56.721501 -3.471274 70.319099 -1.802006 0.000003 0.000000 0.000001 -72.708539 3.586637 -3.640175 64.110485 -5.377984 -1.395223 -13.373498 -1.364647 1.126178 -4.702132 -0.094192 1.622520 -0.000001 0.000000 -0.000000 4.013728 -6.585984 13.058429 31.291853 -1.756238 -11.054206 35.459945 6.377366 -5.961291 -2.074576 -0.000001 0.000001 -0.000000 0.000001 0.000001 
-0.887163 93.541473 69.342514 18.593967 4.614007 -0.865301 5.262743 1.393374 -1.153175 10.557893 3.786626 -2.217347 10.557888 3.786627 -2.217347 0.847321 -0.262695 -0.567124 0.847316 -0.262694 -0.567128 0.000000 0.000000 0.000001 4.219833 -3.726562 -9.065006 13.983739 -21.573144 -56.622395 -9.027135 -92.914205 -8.591502 0.000000 -0.000003 0.000001 0.856956 3.907334 15.285805 11.181003 18.444417 55.800460 -4.686878 71.210138 -1.880512 0.000003 -0.000001 -0.000001 -64.613672 2.489157 -3.640007 49.899883 -6.031385 -1.339588 -11.913649 2.251668 -5.806511 -4.994668 -0.103425 1.817795 -0.000001 -0.000000 -0.000000 1.585653 -6.870697 12.236226 43.241706 -3.288024 -9.060867 39.086919 5.448080 -10.571759 -8.202528 -0.000002 -0.000001 0.000000 -0.000000 0.000000 
-0.751072 93.158150 78.523964 17.665149 4.530777 -1.400552 5.962036 1.250915 -1.158082 11.961740 3.364329 -2.418063 11.961740 3.364328 -2.418064 0.505432 -0.238809 -0.582301 0.505412 -0.238814 -0.582297 -0.000002 0.000000 -0.000000 3.549981 -5.715701 -13.114084 7.189940 -29.855798 -52.539523 -45.990321 -90.813164 -45.468105 -0.000002 -0.000001 -0.000001 1.416317 1.727734 15.722901 15.052716 13.869492 52.970484 -7.476840 74.258500 -0.329034 -0.000001 -0.000001 0.000001 -56.166674 1.936420 -2.989670 37.753936 -6.450582 -1.602091 -9.278711 6.294119 -9.369629 -5.057551 -0.105290 1.927476 -0.000001 0.000000 -0.000001 -2.687538 -9.635305 12.417561 59.715429 -8.605068 -9.242419 35.124108 4.196046 -12.385811 -13.656298 0.000003 -0.000007 0.000000 -0.000000 -0.000001 
-0.364615 92.300766 87.223999 17.185646 4.972744 -2.610009 6.442626 0.859121 -0.595169 12.924281 2.392332 -1.970268 12.924269 2.392331 -1.970269 0.150634 -0.187079 -0.626351 0.150627 -0.187082 -0.626350 0.000001 0.000000 0.000001 2.652358 -7.461126 -16.353850 -0.367782 -39.291322 -50.681359 -16.001187 -92.083743 -15.381714 -0.000001 -0.000000 -0.000003 1.959098 -0.350353 15.676384 19.774265 8.883738 49.774228 -13.240231 78.222550 4.208158 0.000001 -0.000001 0.000001 -41.903453 2.760568 -4.469501 13.353145 -5.622088 -2.322299 10.121906 10.520464 7.600451 -4.775945 -0.096903 1.917935 0.000000 -0.000001 -0.000000 -7.045936 -12.694774 9.967680 76.855242 -7.804965 -7.896991 25.098379 -4.755523 0.528981 -18.224499 -0.000001 -0.000005 0.000001 -0.000000 0.000000 
-0.112268 90.729904 95.976837 16.797102 5.880771 -3.960032 6.721780 0.088022 -0.018430 13.457206 1.121494 -0.866566 13.457212 1.121493 -0.866566 -0.140155 -0.112686 -0.687336 -0.140130 -0.112685 -0.687338 0.000001 0.000000 -0.000000 1.679187 -8.925314 -18.192740 -10.141156 -48.355690 -51.640567 -3.390950 -95.869724 -2.668249 0.000002 -0.000000 0.000001 2.440012 -2.343394 15.292408 25.897340 3.147091 47.333334 -29.140978 82.885534 19.003004 0.000001 -0.000000 -0.000000 -47.926143 5.465396 -2.720884 37.828449 -2.706821 -0.312889 -7.872312 10.437909 8.004995 -3.594875 -0.060317 1.580796 0.000000 -0.000001 -0.000000 -10.876668 -15.655898 6.923562 92.602660 -7.591904 -6.874127 14.285487 -13.365366 15.191154 -22.527552 -0.000000 -0.000018 0.000000 -0.000000 0.000002 
0.196310 89.115562 104.527527 16.977325 6.806424 -5.185531 6.703062 -0.641380 0.633080 13.405771 -0.424143 0.522005 13.405789 -0.424143 0.522007 -0.320713 -0.025702 -0.758710 -0.320719 -0.025701 -0.758711 0.000000 0.000000 -0.000000 0.786026 -10.362035 -18.196862 -22.725972 -54.778725 -55.686775 0.287836 -99.263870 1.116945 0.000001 -0.000000 -0.000002 2.785128 -4.178581 14.425052 33.514157 -2.434999 46.697669 -72.851604 85.702659 61.433590 -0.000000 0.000001 -0.000001 -47.790793 5.283658 1.940401 49.913014 -1.328439 -5.554033 -20.832753 7.387472 9.770548 -0.442825 0.038342 0.459252 0.000000 -0.000001 0.000000 -16.778889 -19.223796 4.429583 106.213792 -7.476790 -6.807225 3.534009 -16.774842 18.206701 -25.725551 -0.000011 -0.000003 0.000001 0.000000 -0.000000 
0.521194 87.719887 112.984787 17.393954 7.327702 -5.964164 6.471092 -1.285112 1.068160 12.953247 -1.966161 1.806164 12.953254 -1.966160 1.806161 -0.373460 0.062965 -0.830500 -0.373469 0.062964 -0.830496 0.000003 -0.000000 -0.000000 0.135376 -12.086944 -16.151603 -34.726225 -57.384442 -59.624553 2.135963 -102.238281 3.002683 -0.000001 0.000001 -0.000002 2.878226 -5.483084 12.610083 42.990013 -6.270723 47.855802 -129.589685 84.105085 116.775813 0.000001 0.000000 -0.000001 -46.790477 5.701701 1.965850 59.874886 0.257564 -2.585638 -28.609808 7.093742 6.328512 -4.346921 0.220437 0.000716 -0.000000 -0.000003 -0.000000 -25.819216 -23.598179 1.995120 117.578169 -7.355472 -7.706822 -8.642296 -15.271827 10.583110 -25.594990 0.000006 -0.000010 -0.000001 0.000002 -0.000001 
0.882564 86.600731 121.570625 17.753639 7.091345 -6.287045 6.111056 -1.763114 1.231826 12.266156 -3.172346 2.713234 12.266162 -3.172344 2.713232 -0.310062 0.144849 -0.890954 -0.310059 0.144849 -0.890955 0.000004 -0.000000 -0.000000 -0.126493 -14.109693 -12.481244 -41.435127 -57.733697 -59.223532 2.997217 -105.028714 3.762681 0.000001 0.000000 -0.000001 2.534283 -5.622987 8.733442 55.131634 -7.859240 48.316686 -154.831769 78.511160 140.676243 0.000003 -0.000000 0.000000 -42.206645 4.952287 3.456182 64.026507 -3.383350 -3.273160 -35.510755 7.676157 7.079521 -7.025189 0.235753 -0.322805 0.000000 -0.000000 0.000000 -37.673681 -26.553595 -0.823803 126.363691 -6.678205 -8.383806 -18.081290 -10.701436 0.802496 -21.398880 -0.000002 -0.000009 0.000001 -0.000001 -0.000001 
1.256166 85.887306 130.444000 17.954271 5.956004 -6.323259 5.701761 -2.019430 1.200165 11.483085 -3.761886 3.281885 11.483088 -3.761884 3.281885 -0.164469 0.215626 -0.930975 -0.164484 0.215627 -0.930975 -0.000000 0.000000 0.000000 0.044312 -15.958083 -8.025416 -41.620728 -58.065419 -53.817079 3.574217 -107.184157 4.114117 -0.000000 -0.000002 0.000001 1.994639 -5.534412 4.409579 67.130344 -7.256143 51.226210 -163.409817 71.987236 148.013410 0.000001 0.000000 0.000001 -35.111704 5.715361 4.906572 63.657930 -7.877278 -2.868026 -40.579383 7.981138 8.568996 -9.710199 0.186014 -0.622782 -0.000000 0.000002 -0.000000 -50.441637 -26.333417 -2.239994 132.054959 -5.674975 -8.412038 -23.589687 -6.020405 -5.859949 -12.826325 0.000002 -0.000002 -0.000000 -0.000000 0.000000 
